# xmcd
#
# Track frame offsets:
# 150
# 16685
# 37775
# 54990
# 69503
# 98419
# 116208
# 129283
# 144753
# 160066
# 170810
#
# Disc length: 2534 seconds
#
#
# Revision: 0
# Processed by: cddbd v1.5.1PL2 Copyright (c) Steve Scherf et al.
# Submitted via: FreeRIP 2.945 
#
DISCID=7e09e40b
DTITLE=Susie Arioli Band - Learn to smile again
DYEAR=2005
DGENRE=Country
TTITLE0=By the time I get to Phoenix
TTITLE1=Less and less
TTITLE2=Husbands and wives
TTITLE3=By myself
TTITLE4=Night flight
TTITLE5=Half a mind
TTITLE6=A million years or so
TTITLE7=A world I can't live in
TTITLE8=Ruler of my heart
TTITLE9=Don't we all have the right
TTITLE10=Leo's Blues
EXTD=
EXTT0=
EXTT1=
EXTT2=
EXTT3=
EXTT4=
EXTT5=
EXTT6=
EXTT7=
EXTT8=
EXTT9=
EXTT10=
PLAYORDER=
